# xmcd
#
# Track frame offsets: 
#        150
#        13572
#        26461
#        39235
#        170773
#
# Disc length: 3824 seconds
#
# Revision: 0
# Processed by: cddbd v1.5.2PL0 Copyright (c) Steve Scherf et al.
# Submitted via: ExactAudioCopy v1.3
#
DISCID=300eee05
DTITLE=Big Bill Broonzy - Seven Classic Albums
DYEAR=2015
DGENRE=Folk, Blues
TTITLE0=Southbound Train
TTITLE1=You Changed
TTITLE2=Tomorrow
TTITLE3=Introduction-The Frog...
TTITLE4=Love You Baby-Hush-A-Bye...
EXTD=
EXTT0=
EXTT1=
EXTT2=
EXTT3=
EXTT4=
PLAYORDER=
